<?xml version="1.0" encoding="UTF-8" standalone="no"?>
<svg
   xmlns:dc="http://purl.org/dc/elements/1.1/"
   xmlns:cc="http://creativecommons.org/ns#"
   xmlns:rdf="http://www.w3.org/1999/02/22-rdf-syntax-ns#"
   xmlns:svg="http://www.w3.org/2000/svg"
   xmlns="http://www.w3.org/2000/svg"
   id="svg8"
   version="1.1"
   viewBox="0 0 25.4 25.4"
   height="96"
   width="96"
   style="background-color:black">
    <g
       aria-label="Da">
      <path
         id="path32"
         style="fill:#ffffff"
         d="m 4.7625,18.152523 h 2.8447944 c 3.3527936,0 5.1815896,-2.065863 5.1815896,-5.604922 0,-3.5221267 -1.828796,-5.5033228 -5.2493228,-5.5033228 H 4.7625 Z M 6.1848972,16.984125 V 8.2126759 h 1.2530642 c 2.5907946,0 3.8777256,1.5409303 3.8777256,4.3349251 0,2.810928 -1.286931,4.436524 -3.8777256,4.436524 z" />
      <path
         id="path34"
         style="fill:#ffffff"
         d="m 16.954463,18.355723 c 1.032931,0 1.930396,-0.524933 2.709328,-1.185331 h 0.0508 l 0.135466,0.982131 h 1.151465 v -5.063057 c 0,-2.031996 -0.863599,-3.3697264 -2.861728,-3.3697264 -1.320798,0 -2.472262,0.5587994 -3.23426,1.0667984 l 0.541865,0.948264 c 0.643466,-0.423332 1.507064,-0.846665 2.455329,-0.846665 1.33773,0 1.676396,0.999065 1.69333,2.031996 -3.522127,0.389466 -5.046124,1.269998 -5.046124,3.098794 0,1.490131 1.032932,2.336796 2.404529,2.336796 z m 0.389466,-1.151465 c -0.795865,0 -1.422397,-0.355599 -1.422397,-1.269997 0,-1.066798 0.897464,-1.69333 3.674526,-2.015063 v 2.235196 c -0.795865,0.694265 -1.456264,1.049864 -2.252129,1.049864 z" />
    </g>
</svg>
